<svg xmlns="http://www.w3.org/2000/svg" viewBox="0 0 200 200" width="200" height="200">
  <defs>
    <!-- Animated rainbow gradient for strokes -->
    <linearGradient id="rainbow" x1="0%" y1="0%" x2="100%" y2="100%">
      <stop offset="0%" stop-color="#00d2ff">
        <animate attributeName="stop-color"
                 values="#00d2ff; #7cff00; #ffd200; #ff3d81; #9b5cff; #00d2ff"
                 dur="8s" repeatCount="indefinite"/>
      </stop>
      <stop offset="100%" stop-color="#ff3d81">
        <animate attributeName="stop-color"
                 values="#ff3d81; #9b5cff; #00d2ff; #7cff00; #ffd200; #ff3d81"
                 dur="8s" repeatCount="indefinite"/>
      </stop>
    </linearGradient>

    <!-- Soft neon glow -->
    <filter id="glow" x="-50%" y="-50%" width="200%" height="200%">
      <feGaussianBlur stdDeviation="3" result="b"/>
      <feMerge>
        <feMergeNode in="b"/>
        <feMergeNode in="SourceGraphic"/>
      </feMerge>
    </filter>
  </defs>

  <g filter="url(#glow)" fill="none" stroke="url(#rainbow)" stroke-linecap="round" stroke-linejoin="round">
    <!-- Outer ring -->
    <circle cx="100" cy="100" r="88" stroke-width="4"/>

    <!-- Tear outline (double stroke for extra glow) -->
    <path d="M100 22
             C140 82, 170 116, 170 144
             c0 46-32 82-70 82s-70-36-70-82
             c0-28 30-62 70-122z"
          stroke-width="12" opacity="0.28"/>
    <path d="M100 22
             C140 82, 170 116, 170 144
             c0 46-32 82-70 82s-70-36-70-82
             c0-28 30-62 70-122z"
          stroke-width="6"/>

    <!-- Ladder spine -->
    <line x1="100" y1="92" x2="100" y2="198" stroke-width="6"/>

    <!-- Ladder rungs -->
    <g stroke-width="5">
      <line x1="76" y1="116" x2="124" y2="116"/>
      <line x1="76" y1="134" x2="124" y2="134"/>
      <line x1="76" y1="152" x2="124" y2="152"/>
      <line x1="76" y1="170" x2="124" y2="170"/>
      <line x1="76" y1="188" x2="124" y2="188"/>
    </g>
  </g>
</svg>
